<mxfile host="app.diagrams.net" modified="2021-05-06T15:17:50.304Z" agent="5.0 (Macintosh; Intel Mac OS X 10_15_7) AppleWebKit/605.1.15 (KHTML, like Gecko) Version/14.1 Safari/605.1.15" etag="q0Fjj6aVscM7QeBRjYXE" version="14.6.10" type="github">
  <diagram id="gjvZ4gOpl2NELNdTMGmE" name="Page-1">
    <mxGraphModel dx="1426" dy="717" grid="1" gridSize="10" guides="1" tooltips="1" connect="1" arrows="1" fold="1" page="1" pageScale="1" pageWidth="827" pageHeight="1169" math="0" shadow="0">
      <root>
        <mxCell id="0" />
        <mxCell id="1" parent="0" />
        <mxCell id="oMFMiWhIfmU4jBjoLOnd-13" style="rounded=0;orthogonalLoop=1;jettySize=auto;html=1;edgeStyle=orthogonalEdgeStyle;" parent="1" source="oMFMiWhIfmU4jBjoLOnd-1" target="oMFMiWhIfmU4jBjoLOnd-2" edge="1">
          <mxGeometry relative="1" as="geometry">
            <Array as="points">
              <mxPoint x="213" y="157.14" />
            </Array>
          </mxGeometry>
        </mxCell>
        <mxCell id="SULVt1aDSewzh9qNDvrG-3" style="rounded=0;orthogonalLoop=1;jettySize=auto;html=1;edgeStyle=orthogonalEdgeStyle;" edge="1" parent="1" source="oMFMiWhIfmU4jBjoLOnd-1" target="SULVt1aDSewzh9qNDvrG-1">
          <mxGeometry relative="1" as="geometry">
            <Array as="points">
              <mxPoint x="209" y="657.14" />
            </Array>
          </mxGeometry>
        </mxCell>
        <mxCell id="SULVt1aDSewzh9qNDvrG-5" style="rounded=0;orthogonalLoop=1;jettySize=auto;html=1;" edge="1" parent="1" source="oMFMiWhIfmU4jBjoLOnd-1" target="oMFMiWhIfmU4jBjoLOnd-55">
          <mxGeometry relative="1" as="geometry" />
        </mxCell>
        <mxCell id="SULVt1aDSewzh9qNDvrG-7" style="rounded=0;orthogonalLoop=1;jettySize=auto;html=1;edgeStyle=orthogonalEdgeStyle;" edge="1" parent="1" source="oMFMiWhIfmU4jBjoLOnd-1" target="SULVt1aDSewzh9qNDvrG-2">
          <mxGeometry relative="1" as="geometry">
            <Array as="points">
              <mxPoint x="209" y="557.14" />
            </Array>
          </mxGeometry>
        </mxCell>
        <mxCell id="SULVt1aDSewzh9qNDvrG-8" style="edgeStyle=none;rounded=0;orthogonalLoop=1;jettySize=auto;html=1;" edge="1" parent="1" source="oMFMiWhIfmU4jBjoLOnd-1" target="SULVt1aDSewzh9qNDvrG-4">
          <mxGeometry relative="1" as="geometry" />
        </mxCell>
        <mxCell id="SULVt1aDSewzh9qNDvrG-22" style="rounded=0;orthogonalLoop=1;jettySize=auto;html=1;" edge="1" parent="1" source="oMFMiWhIfmU4jBjoLOnd-1" target="SULVt1aDSewzh9qNDvrG-11">
          <mxGeometry relative="1" as="geometry" />
        </mxCell>
        <mxCell id="SULVt1aDSewzh9qNDvrG-50" style="rounded=0;orthogonalLoop=1;jettySize=auto;html=1;strokeWidth=1;dashed=1;edgeStyle=orthogonalEdgeStyle;" edge="1" parent="1" source="oMFMiWhIfmU4jBjoLOnd-1" target="SULVt1aDSewzh9qNDvrG-37">
          <mxGeometry relative="1" as="geometry">
            <mxPoint x="650" y="121.75790987535959" as="targetPoint" />
            <Array as="points">
              <mxPoint x="170" y="358" />
              <mxPoint x="170" y="100" />
            </Array>
          </mxGeometry>
        </mxCell>
        <mxCell id="SULVt1aDSewzh9qNDvrG-53" value="sharing &lt;br&gt;activity logs" style="edgeLabel;html=1;align=center;verticalAlign=middle;resizable=0;points=[];" vertex="1" connectable="0" parent="SULVt1aDSewzh9qNDvrG-50">
          <mxGeometry x="0.503" y="-2" relative="1" as="geometry">
            <mxPoint x="1" as="offset" />
          </mxGeometry>
        </mxCell>
        <mxCell id="oMFMiWhIfmU4jBjoLOnd-1" value="API&lt;br&gt;Management" style="aspect=fixed;html=1;points=[];align=center;image;fontSize=12;image=img/lib/azure2/integration/API_Management_Services.svg;" parent="1" vertex="1">
          <mxGeometry x="190" y="337.63999999999993" width="45" height="41.54" as="geometry" />
        </mxCell>
        <mxCell id="SULVt1aDSewzh9qNDvrG-10" style="edgeStyle=none;rounded=0;orthogonalLoop=1;jettySize=auto;html=1;" edge="1" parent="1" source="oMFMiWhIfmU4jBjoLOnd-2" target="SULVt1aDSewzh9qNDvrG-9">
          <mxGeometry relative="1" as="geometry" />
        </mxCell>
        <mxCell id="oMFMiWhIfmU4jBjoLOnd-2" value="Accounts&lt;br&gt;&amp;amp; Balances" style="aspect=fixed;html=1;points=[];align=center;image;fontSize=12;image=img/lib/azure2/compute/Function_Apps.svg;" parent="1" vertex="1">
          <mxGeometry x="299" y="137.14" width="45" height="39.71" as="geometry" />
        </mxCell>
        <mxCell id="oMFMiWhIfmU4jBjoLOnd-22" style="edgeStyle=orthogonalEdgeStyle;rounded=0;orthogonalLoop=1;jettySize=auto;html=1;" parent="1" source="oMFMiWhIfmU4jBjoLOnd-4" target="oMFMiWhIfmU4jBjoLOnd-21" edge="1">
          <mxGeometry relative="1" as="geometry" />
        </mxCell>
        <mxCell id="SULVt1aDSewzh9qNDvrG-24" style="edgeStyle=none;rounded=0;orthogonalLoop=1;jettySize=auto;html=1;" edge="1" parent="1" source="oMFMiWhIfmU4jBjoLOnd-4" target="SULVt1aDSewzh9qNDvrG-13">
          <mxGeometry relative="1" as="geometry" />
        </mxCell>
        <mxCell id="SULVt1aDSewzh9qNDvrG-25" style="edgeStyle=none;rounded=0;orthogonalLoop=1;jettySize=auto;html=1;" edge="1" parent="1" source="oMFMiWhIfmU4jBjoLOnd-4" target="SULVt1aDSewzh9qNDvrG-19">
          <mxGeometry relative="1" as="geometry" />
        </mxCell>
        <mxCell id="SULVt1aDSewzh9qNDvrG-26" style="edgeStyle=none;rounded=0;orthogonalLoop=1;jettySize=auto;html=1;" edge="1" parent="1" source="oMFMiWhIfmU4jBjoLOnd-4" target="SULVt1aDSewzh9qNDvrG-12">
          <mxGeometry relative="1" as="geometry" />
        </mxCell>
        <mxCell id="SULVt1aDSewzh9qNDvrG-27" style="edgeStyle=none;rounded=0;orthogonalLoop=1;jettySize=auto;html=1;" edge="1" parent="1" source="oMFMiWhIfmU4jBjoLOnd-4" target="SULVt1aDSewzh9qNDvrG-9">
          <mxGeometry relative="1" as="geometry" />
        </mxCell>
        <mxCell id="oMFMiWhIfmU4jBjoLOnd-4" value="Data Factory" style="aspect=fixed;html=1;points=[];align=center;image;fontSize=12;image=img/lib/azure2/databases/Data_Factory.svg;" parent="1" vertex="1">
          <mxGeometry x="670" y="436.5" width="37.5" height="37.5" as="geometry" />
        </mxCell>
        <mxCell id="oMFMiWhIfmU4jBjoLOnd-16" style="edgeStyle=orthogonalEdgeStyle;rounded=0;orthogonalLoop=1;jettySize=auto;html=1;" parent="1" source="oMFMiWhIfmU4jBjoLOnd-5" target="oMFMiWhIfmU4jBjoLOnd-10" edge="1">
          <mxGeometry relative="1" as="geometry" />
        </mxCell>
        <mxCell id="oMFMiWhIfmU4jBjoLOnd-5" value="MDM Queue" style="aspect=fixed;html=1;points=[];align=center;image;fontSize=12;image=img/lib/mscae/Service_Bus.svg;" parent="1" vertex="1">
          <mxGeometry x="792.5" y="236.36" width="39.64" height="39.64" as="geometry" />
        </mxCell>
        <mxCell id="SULVt1aDSewzh9qNDvrG-30" style="edgeStyle=none;rounded=0;orthogonalLoop=1;jettySize=auto;html=1;" edge="1" parent="1" source="oMFMiWhIfmU4jBjoLOnd-6" target="SULVt1aDSewzh9qNDvrG-28">
          <mxGeometry relative="1" as="geometry" />
        </mxCell>
        <mxCell id="SULVt1aDSewzh9qNDvrG-35" style="edgeStyle=none;rounded=0;orthogonalLoop=1;jettySize=auto;html=1;" edge="1" parent="1" source="oMFMiWhIfmU4jBjoLOnd-6" target="oMFMiWhIfmU4jBjoLOnd-4">
          <mxGeometry relative="1" as="geometry" />
        </mxCell>
        <mxCell id="oMFMiWhIfmU4jBjoLOnd-6" value="T24" style="aspect=fixed;html=1;points=[];align=center;image;fontSize=12;image=img/lib/azure2/azure_stack/Azure_Stack.svg;" parent="1" vertex="1">
          <mxGeometry x="1009.32" y="433.16" width="45.92" height="47.4" as="geometry" />
        </mxCell>
        <mxCell id="SULVt1aDSewzh9qNDvrG-56" style="edgeStyle=orthogonalEdgeStyle;rounded=0;orthogonalLoop=1;jettySize=auto;html=1;strokeWidth=1;" edge="1" parent="1" source="oMFMiWhIfmU4jBjoLOnd-7" target="SULVt1aDSewzh9qNDvrG-55">
          <mxGeometry relative="1" as="geometry" />
        </mxCell>
        <mxCell id="oMFMiWhIfmU4jBjoLOnd-7" value="Client" style="outlineConnect=0;fontColor=#232F3E;gradientColor=none;strokeColor=#232F3E;fillColor=#ffffff;dashed=0;verticalLabelPosition=bottom;verticalAlign=top;align=center;html=1;fontSize=12;fontStyle=0;aspect=fixed;shape=mxgraph.aws4.resourceIcon;resIcon=mxgraph.aws4.client;" parent="1" vertex="1">
          <mxGeometry x="10" y="336.14" width="45" height="45" as="geometry" />
        </mxCell>
        <mxCell id="oMFMiWhIfmU4jBjoLOnd-15" style="edgeStyle=orthogonalEdgeStyle;rounded=0;orthogonalLoop=1;jettySize=auto;html=1;" parent="1" source="oMFMiWhIfmU4jBjoLOnd-8" target="oMFMiWhIfmU4jBjoLOnd-5" edge="1">
          <mxGeometry relative="1" as="geometry" />
        </mxCell>
        <mxCell id="oMFMiWhIfmU4jBjoLOnd-8" value="MDM" style="aspect=fixed;html=1;points=[];align=center;image;fontSize=12;image=img/lib/azure2/azure_stack/Azure_Stack.svg;" parent="1" vertex="1">
          <mxGeometry x="1008.32" y="230.50000000000003" width="48.44" height="50" as="geometry" />
        </mxCell>
        <mxCell id="oMFMiWhIfmU4jBjoLOnd-11" style="rounded=0;orthogonalLoop=1;jettySize=auto;html=1;" parent="1" source="oMFMiWhIfmU4jBjoLOnd-10" target="SULVt1aDSewzh9qNDvrG-19" edge="1">
          <mxGeometry relative="1" as="geometry">
            <mxPoint x="602" y="251" as="targetPoint" />
          </mxGeometry>
        </mxCell>
        <mxCell id="SULVt1aDSewzh9qNDvrG-23" style="edgeStyle=none;rounded=0;orthogonalLoop=1;jettySize=auto;html=1;" edge="1" parent="1" source="oMFMiWhIfmU4jBjoLOnd-10" target="SULVt1aDSewzh9qNDvrG-13">
          <mxGeometry relative="1" as="geometry" />
        </mxCell>
        <mxCell id="SULVt1aDSewzh9qNDvrG-38" style="edgeStyle=orthogonalEdgeStyle;rounded=0;orthogonalLoop=1;jettySize=auto;html=1;fillColor=#d5e8d4;strokeColor=#78A65E;strokeWidth=2;" edge="1" parent="1" source="oMFMiWhIfmU4jBjoLOnd-10" target="oMFMiWhIfmU4jBjoLOnd-37">
          <mxGeometry relative="1" as="geometry">
            <Array as="points">
              <mxPoint x="691" y="214" />
              <mxPoint x="938" y="214" />
            </Array>
          </mxGeometry>
        </mxCell>
        <mxCell id="oMFMiWhIfmU4jBjoLOnd-10" value="MDM Events" style="aspect=fixed;html=1;points=[];align=center;image;fontSize=12;image=img/lib/azure2/compute/Function_Apps.svg;" parent="1" vertex="1">
          <mxGeometry x="670" y="237" width="41.93" height="37" as="geometry" />
        </mxCell>
        <mxCell id="oMFMiWhIfmU4jBjoLOnd-21" value="Datalake" style="aspect=fixed;html=1;points=[];align=center;image;fontSize=12;image=img/lib/mscae/Blog_Storage.svg;" parent="1" vertex="1">
          <mxGeometry x="668.7500000000001" y="532.79" width="40" height="36.8" as="geometry" />
        </mxCell>
        <mxCell id="SULVt1aDSewzh9qNDvrG-39" style="edgeStyle=orthogonalEdgeStyle;rounded=0;orthogonalLoop=1;jettySize=auto;html=1;" edge="1" parent="1" source="oMFMiWhIfmU4jBjoLOnd-37" target="oMFMiWhIfmU4jBjoLOnd-8">
          <mxGeometry relative="1" as="geometry" />
        </mxCell>
        <mxCell id="SULVt1aDSewzh9qNDvrG-41" style="edgeStyle=orthogonalEdgeStyle;rounded=0;orthogonalLoop=1;jettySize=auto;html=1;" edge="1" parent="1" source="oMFMiWhIfmU4jBjoLOnd-37" target="oMFMiWhIfmU4jBjoLOnd-6">
          <mxGeometry relative="1" as="geometry" />
        </mxCell>
        <mxCell id="oMFMiWhIfmU4jBjoLOnd-37" value="Apigee" style="aspect=fixed;perimeter=ellipsePerimeter;html=1;align=center;shadow=0;dashed=0;spacingTop=3;image;image=img/lib/active_directory/generic_server.svg;" parent="1" vertex="1">
          <mxGeometry x="920" y="303.99999999999994" width="35.28" height="63" as="geometry" />
        </mxCell>
        <mxCell id="SULVt1aDSewzh9qNDvrG-47" style="edgeStyle=orthogonalEdgeStyle;rounded=0;orthogonalLoop=1;jettySize=auto;html=1;fillColor=#f8cecc;strokeColor=#b85450;strokeWidth=2;" edge="1" parent="1" source="oMFMiWhIfmU4jBjoLOnd-37" target="oMFMiWhIfmU4jBjoLOnd-1">
          <mxGeometry relative="1" as="geometry">
            <Array as="points">
              <mxPoint x="938" y="704" />
              <mxPoint x="170" y="704" />
              <mxPoint x="170" y="358" />
            </Array>
          </mxGeometry>
        </mxCell>
        <mxCell id="SULVt1aDSewzh9qNDvrG-48" value="call Azure&lt;br&gt;APIs" style="edgeLabel;html=1;align=center;verticalAlign=middle;resizable=0;points=[];" vertex="1" connectable="0" parent="SULVt1aDSewzh9qNDvrG-47">
          <mxGeometry x="-0.4174" y="1" relative="1" as="geometry">
            <mxPoint as="offset" />
          </mxGeometry>
        </mxCell>
        <mxCell id="SULVt1aDSewzh9qNDvrG-52" style="edgeStyle=orthogonalEdgeStyle;rounded=0;orthogonalLoop=1;jettySize=auto;html=1;entryX=1;entryY=1;entryDx=0;entryDy=0;strokeWidth=1;" edge="1" parent="1" source="oMFMiWhIfmU4jBjoLOnd-52" target="oMFMiWhIfmU4jBjoLOnd-37">
          <mxGeometry relative="1" as="geometry" />
        </mxCell>
        <mxCell id="oMFMiWhIfmU4jBjoLOnd-52" value="Pega" style="aspect=fixed;html=1;points=[];align=center;image;fontSize=12;image=img/lib/azure2/azure_stack/Azure_Stack.svg;" parent="1" vertex="1">
          <mxGeometry x="1006.8" y="587.14" width="48.44" height="50" as="geometry" />
        </mxCell>
        <mxCell id="SULVt1aDSewzh9qNDvrG-16" style="edgeStyle=none;rounded=0;orthogonalLoop=1;jettySize=auto;html=1;" edge="1" parent="1" source="oMFMiWhIfmU4jBjoLOnd-55" target="SULVt1aDSewzh9qNDvrG-14">
          <mxGeometry relative="1" as="geometry" />
        </mxCell>
        <mxCell id="SULVt1aDSewzh9qNDvrG-17" style="edgeStyle=none;rounded=0;orthogonalLoop=1;jettySize=auto;html=1;" edge="1" parent="1" source="oMFMiWhIfmU4jBjoLOnd-55" target="SULVt1aDSewzh9qNDvrG-13">
          <mxGeometry relative="1" as="geometry" />
        </mxCell>
        <mxCell id="oMFMiWhIfmU4jBjoLOnd-55" value="Common" style="aspect=fixed;html=1;points=[];align=center;image;fontSize=12;image=img/lib/azure2/compute/Function_Apps.svg;" parent="1" vertex="1">
          <mxGeometry x="299" y="437.14" width="45" height="39.71" as="geometry" />
        </mxCell>
        <mxCell id="SULVt1aDSewzh9qNDvrG-21" style="edgeStyle=orthogonalEdgeStyle;rounded=0;orthogonalLoop=1;jettySize=auto;html=1;" edge="1" parent="1" source="SULVt1aDSewzh9qNDvrG-1" target="SULVt1aDSewzh9qNDvrG-14">
          <mxGeometry relative="1" as="geometry" />
        </mxCell>
        <mxCell id="SULVt1aDSewzh9qNDvrG-1" value="Admin" style="aspect=fixed;html=1;points=[];align=center;image;fontSize=12;image=img/lib/azure2/compute/Function_Apps.svg;" vertex="1" parent="1">
          <mxGeometry x="299" y="637.14" width="45" height="39.71" as="geometry" />
        </mxCell>
        <mxCell id="SULVt1aDSewzh9qNDvrG-15" style="edgeStyle=none;rounded=0;orthogonalLoop=1;jettySize=auto;html=1;" edge="1" parent="1" source="SULVt1aDSewzh9qNDvrG-2" target="SULVt1aDSewzh9qNDvrG-14">
          <mxGeometry relative="1" as="geometry" />
        </mxCell>
        <mxCell id="SULVt1aDSewzh9qNDvrG-2" value="Products" style="aspect=fixed;html=1;points=[];align=center;image;fontSize=12;image=img/lib/azure2/compute/Function_Apps.svg;" vertex="1" parent="1">
          <mxGeometry x="299" y="537.14" width="45" height="39.71" as="geometry" />
        </mxCell>
        <mxCell id="SULVt1aDSewzh9qNDvrG-20" style="edgeStyle=none;rounded=0;orthogonalLoop=1;jettySize=auto;html=1;" edge="1" parent="1" source="SULVt1aDSewzh9qNDvrG-4" target="SULVt1aDSewzh9qNDvrG-19">
          <mxGeometry relative="1" as="geometry" />
        </mxCell>
        <mxCell id="SULVt1aDSewzh9qNDvrG-4" value="Consents" style="aspect=fixed;html=1;points=[];align=center;image;fontSize=12;image=img/lib/azure2/compute/Function_Apps.svg;" vertex="1" parent="1">
          <mxGeometry x="299" y="337.14" width="45" height="39.71" as="geometry" />
        </mxCell>
        <mxCell id="SULVt1aDSewzh9qNDvrG-9" value="Accounts" style="aspect=fixed;html=1;points=[];align=center;image;fontSize=12;image=img/lib/azure2/databases/Azure_Cosmos_DB.svg;" vertex="1" parent="1">
          <mxGeometry x="419" y="135.92" width="42.14" height="42.14" as="geometry" />
        </mxCell>
        <mxCell id="SULVt1aDSewzh9qNDvrG-18" style="edgeStyle=none;rounded=0;orthogonalLoop=1;jettySize=auto;html=1;" edge="1" parent="1" source="SULVt1aDSewzh9qNDvrG-11" target="SULVt1aDSewzh9qNDvrG-12">
          <mxGeometry relative="1" as="geometry" />
        </mxCell>
        <mxCell id="SULVt1aDSewzh9qNDvrG-11" value="Transactions" style="aspect=fixed;html=1;points=[];align=center;image;fontSize=12;image=img/lib/azure2/compute/Function_Apps.svg;" vertex="1" parent="1">
          <mxGeometry x="299" y="237.14" width="45" height="39.71" as="geometry" />
        </mxCell>
        <mxCell id="SULVt1aDSewzh9qNDvrG-12" value="Transactions" style="aspect=fixed;html=1;points=[];align=center;image;fontSize=12;image=img/lib/azure2/databases/Azure_Cosmos_DB.svg;" vertex="1" parent="1">
          <mxGeometry x="419" y="236.14" width="42.14" height="42.14" as="geometry" />
        </mxCell>
        <mxCell id="SULVt1aDSewzh9qNDvrG-13" value="Customers" style="aspect=fixed;html=1;points=[];align=center;image;fontSize=12;image=img/lib/azure2/databases/Azure_Cosmos_DB.svg;" vertex="1" parent="1">
          <mxGeometry x="419" y="436.14" width="42.14" height="42.14" as="geometry" />
        </mxCell>
        <mxCell id="SULVt1aDSewzh9qNDvrG-14" value="Common" style="aspect=fixed;html=1;points=[];align=center;image;fontSize=12;image=img/lib/azure2/databases/Azure_Cosmos_DB.svg;" vertex="1" parent="1">
          <mxGeometry x="419" y="535.9300000000001" width="42.14" height="42.14" as="geometry" />
        </mxCell>
        <mxCell id="SULVt1aDSewzh9qNDvrG-19" value="PreconsentUsers" style="aspect=fixed;html=1;points=[];align=center;image;fontSize=12;image=img/lib/azure2/databases/Azure_Cosmos_DB.svg;" vertex="1" parent="1">
          <mxGeometry x="419" y="336.14" width="42.14" height="42.14" as="geometry" />
        </mxCell>
        <mxCell id="SULVt1aDSewzh9qNDvrG-31" style="edgeStyle=none;rounded=0;orthogonalLoop=1;jettySize=auto;html=1;" edge="1" parent="1" source="SULVt1aDSewzh9qNDvrG-28" target="SULVt1aDSewzh9qNDvrG-29">
          <mxGeometry relative="1" as="geometry" />
        </mxCell>
        <mxCell id="SULVt1aDSewzh9qNDvrG-28" value="T24 Queue" style="aspect=fixed;html=1;points=[];align=center;image;fontSize=12;image=img/lib/mscae/Service_Bus.svg;" vertex="1" parent="1">
          <mxGeometry x="792.5" y="333.18" width="39.64" height="39.64" as="geometry" />
        </mxCell>
        <mxCell id="SULVt1aDSewzh9qNDvrG-32" style="edgeStyle=none;rounded=0;orthogonalLoop=1;jettySize=auto;html=1;" edge="1" parent="1" source="SULVt1aDSewzh9qNDvrG-29" target="SULVt1aDSewzh9qNDvrG-12">
          <mxGeometry relative="1" as="geometry" />
        </mxCell>
        <mxCell id="SULVt1aDSewzh9qNDvrG-33" style="edgeStyle=none;rounded=0;orthogonalLoop=1;jettySize=auto;html=1;" edge="1" parent="1" source="SULVt1aDSewzh9qNDvrG-29" target="SULVt1aDSewzh9qNDvrG-9">
          <mxGeometry relative="1" as="geometry" />
        </mxCell>
        <mxCell id="SULVt1aDSewzh9qNDvrG-34" style="edgeStyle=none;rounded=0;orthogonalLoop=1;jettySize=auto;html=1;" edge="1" parent="1" source="SULVt1aDSewzh9qNDvrG-29" target="SULVt1aDSewzh9qNDvrG-19">
          <mxGeometry relative="1" as="geometry" />
        </mxCell>
        <mxCell id="SULVt1aDSewzh9qNDvrG-29" value="Corebanking&lt;br&gt;Events" style="aspect=fixed;html=1;points=[];align=center;image;fontSize=12;image=img/lib/azure2/compute/Function_Apps.svg;" vertex="1" parent="1">
          <mxGeometry x="670" y="334.5" width="41.93" height="37" as="geometry" />
        </mxCell>
        <mxCell id="SULVt1aDSewzh9qNDvrG-42" style="edgeStyle=orthogonalEdgeStyle;rounded=0;orthogonalLoop=1;jettySize=auto;html=1;dashed=1;strokeWidth=1;exitX=0.625;exitY=0.5;exitDx=0;exitDy=0;exitPerimeter=0;" edge="1" parent="1" source="SULVt1aDSewzh9qNDvrG-36" target="SULVt1aDSewzh9qNDvrG-37">
          <mxGeometry relative="1" as="geometry">
            <mxPoint x="278.34000000000015" y="110" as="sourcePoint" />
            <mxPoint x="650" y="110" as="targetPoint" />
            <Array as="points">
              <mxPoint x="675" y="52" />
            </Array>
          </mxGeometry>
        </mxCell>
        <mxCell id="SULVt1aDSewzh9qNDvrG-54" value="arrangement&lt;br&gt;events" style="edgeLabel;html=1;align=center;verticalAlign=middle;resizable=0;points=[];" vertex="1" connectable="0" parent="SULVt1aDSewzh9qNDvrG-42">
          <mxGeometry x="-0.0784" y="3" relative="1" as="geometry">
            <mxPoint as="offset" />
          </mxGeometry>
        </mxCell>
        <mxCell id="SULVt1aDSewzh9qNDvrG-36" value="ForgeRock" style="aspect=fixed;pointerEvents=1;shadow=0;dashed=0;html=1;strokeColor=none;labelPosition=center;verticalLabelPosition=bottom;verticalAlign=top;align=center;fillColor=#00188D;shape=mxgraph.mscae.enterprise.server_directory" vertex="1" parent="1">
          <mxGeometry x="424.23" y="29.14" width="31.68" height="44" as="geometry" />
        </mxCell>
        <mxCell id="SULVt1aDSewzh9qNDvrG-44" style="edgeStyle=orthogonalEdgeStyle;rounded=0;orthogonalLoop=1;jettySize=auto;html=1;" edge="1" parent="1" source="SULVt1aDSewzh9qNDvrG-37" target="SULVt1aDSewzh9qNDvrG-43">
          <mxGeometry relative="1" as="geometry">
            <mxPoint x="700" y="110" as="sourcePoint" />
          </mxGeometry>
        </mxCell>
        <mxCell id="SULVt1aDSewzh9qNDvrG-37" value="EventHub" style="aspect=fixed;html=1;points=[];align=center;image;fontSize=12;image=img/lib/mscae/Dedicated_Event_Hub.svg;" vertex="1" parent="1">
          <mxGeometry x="650" y="70" width="50" height="48" as="geometry" />
        </mxCell>
        <mxCell id="SULVt1aDSewzh9qNDvrG-45" style="edgeStyle=orthogonalEdgeStyle;rounded=0;orthogonalLoop=1;jettySize=auto;html=1;fillColor=#d5e8d4;strokeColor=#78A65E;strokeWidth=2;" edge="1" parent="1" source="SULVt1aDSewzh9qNDvrG-43" target="oMFMiWhIfmU4jBjoLOnd-37">
          <mxGeometry relative="1" as="geometry" />
        </mxCell>
        <mxCell id="SULVt1aDSewzh9qNDvrG-46" value="call on-prem&lt;br&gt;APIs" style="edgeLabel;html=1;align=center;verticalAlign=middle;resizable=0;points=[];" vertex="1" connectable="0" parent="SULVt1aDSewzh9qNDvrG-45">
          <mxGeometry x="0.1261" y="3" relative="1" as="geometry">
            <mxPoint as="offset" />
          </mxGeometry>
        </mxCell>
        <mxCell id="SULVt1aDSewzh9qNDvrG-43" value="" style="aspect=fixed;html=1;points=[];align=center;image;fontSize=12;image=img/lib/azure2/compute/Function_Apps.svg;" vertex="1" parent="1">
          <mxGeometry x="782" y="73.99999999999997" width="45.33" height="40" as="geometry" />
        </mxCell>
        <mxCell id="SULVt1aDSewzh9qNDvrG-57" style="edgeStyle=orthogonalEdgeStyle;rounded=0;orthogonalLoop=1;jettySize=auto;html=1;strokeWidth=1;" edge="1" parent="1" source="SULVt1aDSewzh9qNDvrG-55" target="oMFMiWhIfmU4jBjoLOnd-1">
          <mxGeometry relative="1" as="geometry" />
        </mxCell>
        <mxCell id="SULVt1aDSewzh9qNDvrG-55" value="Application&lt;br&gt;Gateway" style="aspect=fixed;html=1;points=[];align=center;image;fontSize=12;image=img/lib/mscae/Application_Gateway.svg;" vertex="1" parent="1">
          <mxGeometry x="100" y="338.66" width="39.5" height="39.5" as="geometry" />
        </mxCell>
      </root>
    </mxGraphModel>
  </diagram>
</mxfile>
